<svg width="21" height="21" viewBox="0 0 21 21" fill="none" xmlns="http://www.w3.org/2000/svg">
<path fill-rule="evenodd" clip-rule="evenodd" d="M1.28309 1.06434C1.86888 0.478553 2.81862 0.478553 3.40441 1.06434L10.8438 8.50368L18.2831 1.06434C18.8689 0.478553 19.8186 0.478553 20.4044 1.06434C20.9902 1.65013 20.9902 2.59987 20.4044 3.18566L12.9651 10.625L20.4044 18.0643C20.9902 18.6501 20.9902 19.5999 20.4044 20.1857C19.8186 20.7714 18.8689 20.7714 18.2831 20.1857L10.8438 12.7463L3.40441 20.1857C2.81862 20.7714 1.86888 20.7714 1.28309 20.1857C0.697303 19.5999 0.697303 18.6501 1.28309 18.0643L8.72243 10.625L1.28309 3.18566C0.697303 2.59987 0.697303 1.65013 1.28309 1.06434Z" fill="white"/>
</svg>
