<svg width="153" height="95" viewBox="0 0 153 95" fill="none" xmlns="http://www.w3.org/2000/svg">
<rect x="24.3105" y="64.876" width="126.788" height="23.0096" rx="2" transform="rotate(-2.78506 24.3105 64.876)" fill="#E15730"/>
<path d="M2.81344 70.3047L3.11363 75.3658C3.5985 74.4204 4.64286 73.7875 5.73594 73.7226C7.65257 73.609 9.47401 75.1839 9.63033 77.8193C9.78664 80.4546 8.09015 82.2532 6.17352 82.3669C4.9906 82.4371 3.95095 81.8826 3.326 80.9731L3.1963 82.3331L1.45935 82.4361L0.74707 70.4272L2.81344 70.3047ZM3.25154 78.1976C3.3368 79.6351 4.32467 80.5832 5.53754 80.5113C6.76538 80.4385 7.63424 79.3802 7.54987 77.9577C7.46461 76.5202 6.47585 75.5571 5.23303 75.6308C4.03514 75.7018 3.16628 76.7601 3.25154 78.1976Z" fill="white"/>
<path d="M18.194 73.1791L14.3919 84.8246L12.3105 84.9481L13.5164 81.4656L9.94351 73.6684L12.1746 73.5361L14.4287 79.1124L14.4736 79.1097L16.0677 73.3052L18.194 73.1791Z" fill="white"/>
<path d="M71.9707 69.0208C75.0599 68.8663 77.6279 71.0397 77.7813 74.1079C77.9347 77.176 75.5952 79.5741 72.506 79.7286C69.3952 79.8841 66.8498 77.7302 66.6964 74.662C66.543 71.5938 68.8599 69.1763 71.9707 69.0208ZM72.3985 77.5792C74.1288 77.4927 75.3115 76.0941 75.2186 74.236C75.1257 72.3779 73.8104 71.1051 72.0792 71.1917C70.3265 71.2793 69.1447 72.6779 69.2375 74.535C69.3304 76.3931 70.6458 77.6668 72.3985 77.5792Z" fill="white"/>
<path d="M88.005 69.4965C88.6456 70.0083 88.6157 70.7212 88.1989 71.182C87.7596 71.6223 87.0581 71.6368 86.4656 71.2059C85.9416 70.8343 85.4648 70.524 84.523 70.5711C82.8357 70.6554 81.6764 72.0529 81.7692 73.91C81.8621 75.7681 83.1775 77.0418 84.8647 76.9575C85.9824 76.9016 86.4453 76.5022 86.8846 76.0608C87.4087 75.5535 88.1306 75.4968 88.6106 75.8913C89.0702 76.3073 89.1722 77.0145 88.5858 77.5877C87.9145 78.2278 86.8783 79.0125 84.8843 79.1122C81.927 79.2601 79.3815 77.1062 79.2281 74.038C79.0747 70.9698 81.3917 68.5523 84.349 68.4044C86.2325 68.3083 87.2732 68.9255 88.005 69.4965Z" fill="white"/>
<path d="M98.6285 73.779L92.7354 74.0736C92.9445 75.6114 94.0867 76.4969 95.686 76.4169C96.8037 76.3611 97.3105 75.9595 97.753 75.5816C98.3006 75.1153 98.9765 75.0178 99.4586 75.4337C99.9407 75.8495 99.9751 76.5376 99.3887 77.1118C98.7175 77.7519 97.6997 78.473 95.7936 78.5683C92.5734 78.7293 90.296 76.6668 90.1405 73.5566C89.9923 70.592 91.8407 68.0303 95.0608 67.8694C98.5223 67.6963 99.8861 70.3698 99.979 72.227C100.022 73.0812 99.5049 73.7352 98.6285 73.779ZM92.7723 72.1669L97.3504 71.938C97.2841 71.0418 96.7901 69.9573 95.1253 70.0405C93.6139 70.116 92.9206 71.1766 92.7723 72.1669Z" fill="white"/>
<path d="M109.045 71.7084C108.974 70.2892 108.181 69.3656 106.801 69.4346C105.246 69.5123 104.488 70.6173 104.568 72.2252L104.792 76.692C104.834 77.5483 104.287 78.0146 103.608 78.0486C102.929 78.0825 102.337 77.6731 102.294 76.8169L101.901 68.9476C101.858 68.0913 102.407 67.6455 103.064 67.6126C103.656 67.5831 104.242 67.8889 104.365 68.5941C104.879 67.8776 105.817 67.329 107.066 67.2666C109.695 67.1351 111.397 68.6825 111.542 71.5836L111.78 76.3427C111.823 77.1989 111.275 77.6653 110.596 77.6992C109.917 77.7332 109.326 77.3238 109.283 76.4675L109.045 71.7084Z" fill="white"/>
<path d="M120.222 76.0674C120.252 76.6725 119.685 77.1829 118.852 77.2246C116.136 77.3604 114.797 76.5062 114.663 73.8134L114.436 69.2839L113.845 69.3135C113.034 69.354 112.617 68.9143 112.588 68.3298C112.558 67.7248 112.929 67.2241 113.739 67.1836L114.33 67.1541L114.246 65.4846C114.203 64.6284 114.751 64.162 115.43 64.1281C116.109 64.0941 116.701 64.5036 116.743 65.3598L116.827 67.0292L118.382 66.9515C119.193 66.911 119.612 67.3917 119.641 67.9772C119.671 68.5822 119.299 69.0408 118.489 69.0813L116.933 69.1591L117.14 73.2927C117.21 74.6914 117.603 75.0901 118.895 75.0255C119.728 74.9829 120.192 75.4624 120.222 76.0674Z" fill="white"/>
<path d="M137.6 71.8307L131.707 72.1254C131.916 73.6631 133.058 74.5487 134.658 74.4687C135.775 74.4128 136.282 74.0112 136.725 73.6334C137.272 73.167 137.948 73.0696 138.43 73.4854C138.912 73.9013 138.947 74.5894 138.36 75.1635C137.689 75.8036 136.671 76.5247 134.765 76.62C131.545 76.781 129.268 74.7186 129.112 71.6084C128.964 68.6438 130.812 66.0821 134.033 65.9211C137.494 65.7481 138.858 68.4216 138.951 70.2787C138.993 71.133 138.477 71.7869 137.6 71.8307ZM131.744 70.2186L136.322 69.9898C136.256 69.0935 135.762 68.009 134.097 68.0922C132.586 68.1678 131.891 69.2284 131.744 70.2186Z" fill="white"/>
<path d="M127.075 68.7231C125.365 68.8086 124.451 70.0311 124.583 72.6575L124.722 75.4432C124.763 76.2594 124.234 76.7042 123.58 76.7369C122.925 76.7696 122.355 76.3797 122.315 75.5636L121.94 68.0627C121.899 67.2465 122.428 66.8213 123.062 66.7896C123.696 66.7579 124.266 67.1478 124.303 67.8848C124.303 67.8857 124.318 68.1679 124.319 68.1679C125.137 67.0725 126.192 66.5938 126.968 66.5551C127.369 66.535 127.646 66.5613 127.923 66.6073C128.436 66.7012 128.894 66.9771 128.924 67.5743C128.953 68.151 128.642 68.7055 127.776 68.7488C127.563 68.7585 127.371 68.7083 127.075 68.7231Z" fill="white"/>
<path d="M60.6034 92.9014L53.7869 86.7341L59.9543 79.9176L66.7707 86.085L60.6034 92.9014ZM57.1573 86.5656L60.4349 89.5311L63.4004 86.2535L60.1228 83.288L57.1573 86.5656Z" fill="white"/>
<path d="M64.5861 68.9888C64.1317 68.5856 63.435 68.6252 63.0291 69.0772L62.104 70.1076C61.2568 69.6262 60.2664 69.3697 59.2209 69.422C56.3071 69.5676 54.0539 72.0429 54.1987 74.9393C54.3435 77.8356 56.8323 80.0738 59.7462 79.9281C62.6601 79.7825 64.9132 77.3072 64.7684 74.4109C64.7151 73.344 64.3429 72.3669 63.7499 71.5649L64.6741 70.5355C65.08 70.0845 65.0405 69.391 64.5861 68.9888ZM59.6346 77.6958C57.9586 77.7796 56.5269 76.4929 56.4435 74.8261C56.3602 73.1602 57.6565 71.7362 59.3325 71.6524C59.8186 71.6281 60.2835 71.7199 60.7017 71.9014C60.8487 71.9651 60.9895 72.0405 61.1231 72.1259C61.1251 72.1268 61.1271 72.1286 61.1291 72.1295C61.3294 72.2576 61.5146 72.4095 61.6795 72.5806C61.6805 72.5815 61.6815 72.5824 61.6816 72.5834C61.8475 72.7554 61.9931 72.9467 62.1144 73.1536C62.3518 73.558 62.4985 74.0227 62.5235 74.5221C62.6068 76.1889 61.3105 77.612 59.6346 77.6958Z" fill="white"/>
<path d="M42.9967 76.5593L37.1035 76.8539C37.3126 78.3916 38.4548 79.2772 40.0542 79.1972C41.1718 79.1413 41.6787 78.7397 42.1211 78.3619C42.6688 77.8956 43.3446 77.7981 43.8267 78.2139C44.3088 78.6298 44.3432 79.3179 43.7569 79.892C43.0856 80.5321 42.0678 81.2533 40.1617 81.3485C36.9416 81.5095 34.6641 79.4471 34.5086 76.3369C34.3604 73.3723 36.2089 70.8106 39.429 70.6496C42.8905 70.4766 44.2543 73.1501 44.3471 75.0072C44.3898 75.8615 43.8731 76.5155 42.9967 76.5593ZM37.1404 74.9471L41.7186 74.7183C41.6522 73.8221 41.1583 72.7375 39.4935 72.8208C37.9821 72.8963 37.2888 73.9569 37.1404 74.9471Z" fill="white"/>
<path d="M51.5984 72.4568C49.8242 72.5455 48.8775 73.8275 49.0153 76.5829L49.1614 79.5054C49.2042 80.3617 48.6565 80.828 47.9775 80.862C47.2985 80.8959 46.707 80.4865 46.6642 79.6303L46.2708 71.7609C46.228 70.9047 46.7767 70.4589 47.4342 70.426C48.0917 70.3931 48.6832 70.8025 48.7219 71.5757C48.7219 71.5767 48.7377 71.8728 48.7387 71.8727C49.5872 70.724 50.6816 70.2225 51.4857 70.1823C51.9019 70.1615 52.1893 70.1893 52.4767 70.2376C53.0086 70.3364 53.4844 70.6262 53.5157 71.2528C53.5459 71.8578 53.2234 72.4393 52.3255 72.4842C52.1057 72.4942 51.9052 72.4415 51.5984 72.4568Z" fill="white"/>
<path d="M123.156 50.7634H122.571C120.68 50.7634 118.789 50.7462 116.898 50.7719C116.44 50.7719 116.314 50.6775 116.314 50.2741C116.314 45.0035 116.304 39.7244 116.294 34.4538C116.294 29.4065 116.294 24.3505 116.294 19.3031C116.294 18.9598 116.323 18.5821 116.168 18.2902C115.573 17.2172 114.754 17.0799 113.78 17.9383C113.312 18.3503 113.205 18.9083 113.205 19.4748C113.224 24.4707 113.253 29.4666 113.263 34.471C113.263 39.7587 113.253 45.0464 113.263 50.3342C113.263 50.6861 113.156 50.7805 112.756 50.7805C110.758 50.7634 108.76 50.7805 106.772 50.7805H106.333V50.317C106.333 33.8186 106.333 17.3203 106.333 0.830467C106.333 0.31543 106.333 0.31543 106.928 0.31543C108.819 0.31543 110.71 0.31543 112.6 0.31543C113.214 0.31543 113.263 0.358349 113.263 0.899139C113.263 5.10528 113.263 9.31142 113.263 13.5176C113.263 13.5261 113.273 13.5347 113.322 13.6034C113.419 13.5004 113.517 13.4146 113.594 13.3201C114.813 11.9295 116.421 11.2857 118.399 11.5604C120.28 11.8265 121.557 12.848 122.308 14.3502C122.951 15.655 123.087 17.0456 123.146 18.4448C123.165 19.0628 123.156 19.6808 123.156 20.3075C123.156 29.8185 123.156 39.3209 123.156 48.832C123.156 49.4586 123.156 50.0938 123.156 50.7891V50.7634Z" fill="white"/>
<path d="M23.2474 49.0533V57.9384C23.0035 57.9471 22.8083 57.9645 22.6034 57.9645C20.652 57.9732 18.7007 57.9732 16.7493 57.9993C16.3005 57.9993 16.32 57.7906 16.32 57.5211C16.3297 53.6524 16.3395 49.7749 16.3395 45.9062C16.3395 37.0124 16.3395 28.1186 16.3395 19.2248C16.3395 18.6075 16.359 17.999 16.32 17.3817C16.2712 16.6514 15.9395 16.0081 15.3248 15.5125C14.9443 15.1996 14.915 14.9127 15.1491 14.4954C15.7053 13.5043 16.1931 12.4871 16.6907 11.4699C16.8078 11.2265 16.9737 11.1309 17.2664 11.1309C19.9593 11.1309 22.6425 11.1309 25.3354 11.1309C28.1454 11.1309 30.0187 12.3393 31.092 14.6345C31.9506 16.4689 32.3408 18.3902 32.6043 20.3376C33.2872 25.2236 32.9165 30.1269 32.9946 35.0215C33.0531 38.3686 32.8092 41.6897 31.9701 44.9672C31.5798 46.506 30.9944 47.9927 29.9797 49.3141C29.1406 50.4009 27.9697 50.9573 26.4477 50.8877C25.55 50.8443 24.8573 50.453 24.2133 49.9488C23.8816 49.688 23.5986 49.3837 23.2474 49.0533ZM23.2376 16.6167V17.0774C23.2376 26.1973 23.2376 35.3084 23.2376 44.4282C23.2376 44.5238 23.2084 44.6282 23.2376 44.7064C23.2767 44.8107 23.3547 44.9325 23.4523 44.9759C23.784 45.1237 24.1158 45.1672 24.4768 44.9933C24.9256 44.776 25.1597 44.4369 25.2963 44.037C25.8232 42.5069 26.0769 40.9333 26.0867 39.3423C26.1257 33.6131 26.1159 27.8926 26.1062 22.1633C26.1062 20.6941 25.9305 19.2335 25.3939 17.8251C25.0719 16.9818 24.2719 16.5384 23.2279 16.6167H23.2376Z" fill="white"/>
<path d="M89.1395 11.1309C89.1395 11.3971 89.1395 11.5689 89.1395 11.7407C89.1395 21.5933 89.1395 31.4544 89.1395 41.307C89.1395 42.2089 89.2353 43.0937 89.5418 43.9612C89.7429 44.5368 90.0303 45.0693 90.5283 45.4816C90.7774 45.6878 90.7486 45.8682 90.5762 46.1001C89.7621 47.1567 88.9671 48.2132 88.1625 49.2698C87.8751 49.6477 87.559 50.0171 87.2813 50.4036C87.0706 50.7043 86.8502 50.7987 86.448 50.6441C85.5859 50.3091 84.8579 49.8367 84.3695 49.1151C84.0342 48.6341 83.7373 48.1359 83.3829 47.5947C83.2775 47.7322 83.1913 47.8524 83.086 47.9641C82.4442 48.6427 81.8695 49.4072 81.132 49.9827C79.6378 51.1509 77.7604 51.0135 76.3141 49.8023C75.1359 48.8145 74.5517 47.5518 74.1111 46.2118C73.5172 44.3821 73.249 42.501 73.0383 40.6112C72.5881 36.5568 72.6839 32.4938 72.7126 28.4308C72.7413 25.0808 73.2298 21.7823 74.6379 18.6384C75.5095 16.6971 76.7164 14.9362 78.4788 13.536C80.5573 11.8868 83.0476 11.191 85.787 11.1394C86.8886 11.1223 87.9901 11.1394 89.1491 11.1394L89.1395 11.1309ZM82.4155 18.7157C82.2239 18.8102 82.0994 18.8617 81.9845 18.9304C81.1703 19.4372 80.6626 20.1502 80.2891 20.9576C79.6569 22.3406 79.5324 23.8095 79.5132 25.2611C79.4462 29.1094 79.427 32.9662 79.4558 36.8145C79.4654 38.4981 79.6186 40.1817 79.7718 41.8653C79.8581 42.836 80.0784 43.8066 80.7009 44.6398C80.835 44.8116 81.0745 45.0006 81.2948 45.035C82.1473 45.1552 82.4155 44.9233 82.4155 44.1416C82.4155 35.8352 82.4155 27.5203 82.4155 19.2139C82.4155 19.0765 82.4155 18.9304 82.4155 18.7157Z" fill="white"/>
<path d="M132.315 33.0814C132.315 33.5109 132.315 33.8717 132.315 34.2412C132.372 36.8013 132.391 39.3614 132.972 41.8785C133.106 42.4541 133.335 43.0211 133.63 43.5452C134.459 44.9885 135.899 45.0658 137.281 44.3527C137.357 44.3098 137.424 44.2582 137.5 44.2153C137.814 44.0521 137.967 44.1208 137.977 44.4386C137.977 44.7565 137.967 45.0744 137.967 45.3922C137.967 46.6981 137.967 48.0039 137.986 49.3097C137.986 49.662 137.853 49.8596 137.519 50.0314C135.031 51.3028 132.134 50.9506 129.97 49.1465C128.54 47.9524 127.806 46.4146 127.253 44.7909C126.557 42.772 126.157 40.693 125.919 38.5882C125.414 34.1123 125.547 29.6278 125.7 25.1433C125.795 22.2396 126.281 19.3702 127.501 16.6382C127.968 15.5987 128.55 14.6194 129.341 13.7259C130.18 12.7809 131.266 12.1795 132.524 11.8531C134.221 11.4149 135.965 11.2345 137.729 11.1916C138.434 11.1744 139.139 11.1572 139.845 11.1314C140.169 11.1228 140.293 11.2088 140.302 11.5352C140.359 13.1331 140.464 14.7225 140.541 16.3204C140.626 18.3135 140.684 20.298 140.769 22.2911C140.903 25.7017 141.036 29.1209 141.179 32.5316C141.198 33.09 141.198 33.09 140.55 33.09C138.158 33.09 135.765 33.09 133.373 33.09C133.049 33.09 132.734 33.09 132.334 33.09L132.315 33.0814ZM134.269 17.652C133.62 18.3393 133.182 19.0781 132.953 19.9114C132.505 21.5609 132.362 23.2447 132.334 24.9285C132.296 27.1278 132.296 29.3357 132.286 31.535C132.286 31.6123 132.324 31.6982 132.362 31.8099C133.049 31.3975 133.687 31.0024 134.335 30.6244C134.574 30.4869 134.65 30.3237 134.64 30.0745C134.564 26.3461 134.507 22.609 134.431 18.8805C134.431 18.4681 134.326 18.0644 134.269 17.652Z" fill="white"/>
<path d="M70.2807 44.5987C70.2807 45.1765 70.2807 45.6766 70.2807 46.1768C70.2807 47.2202 70.272 48.2722 70.2807 49.3156C70.2807 49.626 70.2112 49.7812 69.9068 49.9364C69.159 50.3331 68.3938 50.6866 67.5417 50.7643C64.6723 51.0143 62.3159 49.3328 61.6202 46.4527C61.4029 45.5473 61.2898 44.5987 61.2898 43.6588C61.2637 34.7942 61.2724 25.9297 61.2724 17.0737V16.565C60.429 16.565 59.629 16.565 58.829 16.565C58.3682 16.565 58.3334 16.496 58.2813 16.0389C58.1856 15.1766 58.4726 14.5127 59.0725 13.8659C60.8464 11.9516 62.3767 9.83892 63.8549 7.69176C64.2984 7.04503 64.7244 6.38967 65.1679 5.74294C65.4548 5.31178 65.8635 5.12207 66.3939 5.12207C67.4287 5.12207 67.42 5.11345 67.4113 6.13098C67.3939 7.7435 67.3939 9.36465 67.3852 10.9772C67.3852 11.0807 67.4026 11.1841 67.4113 11.3221H70.2459C70.2546 11.4601 70.272 11.5635 70.272 11.667C70.272 13.1502 70.2633 14.6334 70.2807 16.1166C70.2807 16.4787 70.1677 16.5736 69.8286 16.565C69.0547 16.5477 68.2808 16.565 67.4548 16.565C67.4374 16.8495 67.42 17.1082 67.42 17.3669C67.42 25.5675 67.42 33.7681 67.42 41.9687C67.42 42.5206 67.3765 43.0897 67.4461 43.6329C67.62 44.935 68.8721 45.4697 69.9938 44.7626C70.0633 44.7194 70.1242 44.685 70.2807 44.5901V44.5987Z" fill="white"/>
<path d="M105.111 11.5067V17.5048C104.868 17.4619 104.614 17.4705 104.421 17.3845C103.569 16.972 102.128 17.0752 101.408 17.6423C100.698 18.1923 100.261 18.8883 99.9773 19.6531C99.3787 21.2257 99.1657 22.8584 99.1555 24.4911C99.1149 28.6245 99.1048 32.7493 99.1555 36.8826C99.1758 38.8075 99.3178 40.7324 99.9875 42.5971C100.14 43.0096 100.353 43.4135 100.617 43.783C101.306 44.7025 102.392 44.9946 103.681 44.5908C104.168 44.4361 104.624 44.2041 105.131 43.9892C105.131 44.1095 105.131 44.2384 105.131 44.3673C105.131 46.0172 105.131 47.6671 105.131 49.317C105.131 49.6264 105.04 49.8069 104.685 49.9529C103.488 50.4256 102.28 50.8638 100.921 50.7779C98.4859 50.6146 96.6292 49.5834 95.2798 47.8906C94.1435 46.4727 93.5854 44.8486 93.1289 43.1987C92.3071 40.2855 91.9418 37.3295 91.9317 34.339C91.9215 31.0822 91.8606 27.8167 92.023 24.5599C92.1853 21.3976 92.7941 18.2868 94.5493 15.4338C94.9957 14.7034 95.5334 13.9902 96.1726 13.3629C98.2627 11.3091 100.951 10.7763 104.015 11.3435C104.36 11.4036 104.715 11.4552 105.091 11.5239L105.111 11.5067Z" fill="white"/>
<path d="M42.6401 50.7888H36.6313V11.1309H42.6401V50.7888Z" fill="white"/>
<path d="M47.0747 45.5749C47.8998 45.3479 48.6842 45.1472 49.4483 44.9028C49.9474 44.7457 50.304 44.4314 50.5892 44.0473C51.6894 42.546 51.8117 40.9224 51.2514 39.2901C50.7217 37.7451 50.0187 36.235 49.3566 34.725C47.7979 31.1374 46.3412 27.5237 45.4956 23.7528C45.0678 21.8587 44.8844 19.9645 45.2104 18.0442C45.8216 14.509 48.1443 12.0649 52.2192 11.2881C53.7982 10.9913 53.788 11.0087 54.3381 12.2919C54.8678 13.5401 55.3975 14.7796 55.9375 16.0191C56.0801 16.3421 56.0903 16.5341 55.5911 16.5865C55.1632 16.6301 54.7456 16.7698 54.3177 16.8745C52.7387 17.2673 51.7811 18.4457 51.6894 19.8685C51.5468 21.9547 52.1886 23.9012 52.9425 25.839C53.8899 28.2482 54.878 30.6399 55.8254 33.049C56.4366 34.6028 57.1294 36.1478 57.5674 37.7451C58.2601 40.259 58.6371 42.8428 57.7202 45.3654C56.7219 48.1324 53.8593 50.4718 50.2123 50.7598C49.2955 50.8296 49.3056 50.8296 48.9898 50.0877C48.3888 48.6649 47.7674 47.2508 47.1562 45.8368C47.1052 45.732 47.0747 45.6185 47.0645 45.5836L47.0747 45.5749Z" fill="white"/>
<path d="M147.105 42.3859C149.637 42.3143 151.904 44.1574 151.996 46.3674C152.098 48.7652 150.015 50.7068 147.279 50.7873C144.767 50.8589 142.459 48.9263 142.387 46.6895C142.316 44.3901 144.44 42.4575 147.115 42.377L147.105 42.3859Z" fill="white"/>
</svg>
